<?xml version="1.0" standalone="no"?><!DOCTYPE svg PUBLIC "-//W3C//DTD SVG 1.1//EN" "http://www.w3.org/Graphics/SVG/1.1/DTD/svg11.dtd"><svg t="1669865062890" class="icon" viewBox="0 0 1024 1024" version="1.1" xmlns="http://www.w3.org/2000/svg" p-id="55663" xmlns:xlink="http://www.w3.org/1999/xlink" width="200" height="200"><path d="M243.216349 833.849036l125.189466-64.650082S295.721185 565.968493 286.503254 431.187397c-9.529347-141.756827 14.200596-294.973785 75.362813-313.409646 49.20382-14.761146 109.68092 114.850435 109.680919 114.850435l88.629159 27.280092S497.705979-4.982665 338.136123 28.588042s-174.393285 306.869898-164.490238 464.010705 69.570464 341.250289 69.570464 341.250289z" p-id="55664"></path><path d="M800.153762 627.31756l-118.338301-76.110213S541.86485 715.759869 429.754881 790.998114c-117.964601 79.224378-262.586461 135.279363-309.112098 91.494192-37.36999-35.12779 44.657138-152.344991 44.657138-152.344991l-20.740344-90.435375s-198.060945 186.600815-89.189709 308.053281 352.897269-2.491333 484.065933-89.563408 260.717961-230.884253 260.717961-230.884253z" p-id="55665"></path><path d="M674.528313 359.68615C533.518886 289.61742 344.239888 249.133264 344.239888 249.133264L337.575573 390.080409s212.323825 38.615656 333.651725 98.096223c127.556231 62.283316 248.385865 159.694422 233.749285 221.915455-11.771547 49.826653-154.275774 37.36999-154.275774 37.36999l-67.951098 63.155282s260.593395 78.352412 311.416581-76.608479S815.475458 429.754881 674.528313 359.68615z" p-id="55666"></path></svg>